<?xml version="1.0" encoding="UTF-8" standalone="no"?>
<svg
   viewBox="13 19 725 128"
   width="725"
   height="128"
   font-family="'SF Mono', Menlo, Consolas, monospace"
   font-weight="700"
   font-size="90"
   role="img"
   aria-label="$ how to git"
   version="1.1"
   id="svg3"
   xmlns="http://www.w3.org/2000/svg"
   xmlns:svg="http://www.w3.org/2000/svg">
  <defs
     id="defs3" />
  <g
     id="text3"
     aria-label="$ how to git">
    <path
       style="fill:#8a8a8a"
       d="m 54.498047,86.796875 v 13.271485 q 2.768555,-0.395508 4.30664,-2.109376 1.538086,-1.757812 1.538086,-4.438476 0,-2.72461 -1.538086,-4.438477 -1.49414,-1.757812 -4.30664,-2.285156 z M 48.301758,74.09668 V 61.660156 q -2.72461,0.351563 -4.13086,1.845703 -1.362304,1.450196 -1.362304,3.999024 0,2.504883 1.362304,4.174804 1.40625,1.669922 4.13086,2.416993 z m 6.196289,49.13086 H 48.301758 L 48.257812,110 q -3.823242,-0.13184 -7.998046,-1.14258 -4.174805,-1.01074 -8.701172,-2.90039 V 94.443359 q 4.526367,2.680664 8.745117,4.13086 4.262695,1.450191 7.998047,1.494141 V 85.610352 q -8.657227,-1.713868 -12.875977,-5.888672 -4.21875,-4.21875 -4.21875,-11.118164 0,-7.338868 4.482422,-11.689454 4.482422,-4.350585 12.612305,-4.877929 V 41.621094 h 6.196289 l 0.04395,10.415039 q 3.120117,0.175781 6.459961,0.791015 3.383789,0.615235 6.899414,1.713868 v 11.25 q -2.724609,-1.757813 -6.064453,-2.8125 -3.339844,-1.054688 -7.338867,-1.31836 v 13.491211 q 8.657226,1.362305 13.051758,5.932617 4.438476,4.526368 4.438476,12.084961 0,7.207035 -4.790039,11.821285 -4.746094,4.61426 -12.65625,5.00977 z"
       id="path3" />
    <path
       style="fill:#1a1a1a"
       d="M 179.43457,78.051758 V 110 H 166.64648 V 80.029297 q 0,-5.317383 -1.53808,-7.602539 -1.49414,-2.285156 -4.92188,-2.285156 -3.51562,0 -5.49316,3.120117 -1.97754,3.076172 -1.97754,8.569336 V 110 H 139.92773 V 41.621094 h 12.78809 v 26.542968 q 1.3623,-4.086914 4.6582,-6.328125 3.2959,-2.24121 7.9541,-2.24121 6.98731,0 10.54688,4.658203 3.55957,4.614257 3.55957,13.798828 z m 34.18945,-7.998047 q -4.61425,0 -7.25097,4.086914 -2.63672,4.042969 -2.63672,11.293945 0,7.250977 2.63672,11.337891 2.63672,4.042969 7.25097,4.042969 4.65821,0 7.29493,-4.042969 2.63671,-4.086914 2.63671,-11.337891 0,-7.250976 -2.63671,-11.293945 -2.63672,-4.086914 -7.29493,-4.086914 z M 190.86035,85.43457 q 0,-11.909179 6.15235,-18.852539 6.19628,-6.987304 16.61132,-6.987304 10.45899,0 16.61133,6.987304 6.19629,6.94336 6.19629,18.852539 0,11.90918 -6.19629,18.89648 -6.15234,6.94336 -16.61133,6.94336 -10.41504,0 -16.61132,-6.94336 -6.15235,-6.9873 -6.15235,-18.89648 z m 49.87793,-24.65332 h 10.72266 l 5.84472,37.705078 5.31739,-24.829101 h 10.41504 l 5.22949,24.829101 5.93262,-37.705078 h 10.72265 L 286.00195,110 H 273.78516 L 267.80859,84.423828 261.87598,110 h -12.2168 z M 379.42969,46.806641 V 60.78125 h 16.83105 v 9.887695 h -16.83105 v 23.291016 q 0,3.295898 1.58203,4.746094 1.62598,1.406245 5.36133,1.406245 h 9.88769 V 110 H 385.4502 q -11.07422,0 -14.98536,-3.51562 -3.91113,-3.55958 -3.91113,-13.139653 V 70.668945 H 353.98535 V 60.78125 h 12.56836 V 46.806641 Z m 50.93261,23.24707 q -4.61425,0 -7.25097,4.086914 -2.63672,4.042969 -2.63672,11.293945 0,7.250977 2.63672,11.337891 2.63672,4.042969 7.25097,4.042969 4.65821,0 7.29493,-4.042969 2.63672,-4.086914 2.63672,-11.337891 0,-7.250976 -2.63672,-11.293945 -2.63672,-4.086914 -7.29493,-4.086914 z M 407.59863,85.43457 q 0,-11.909179 6.15235,-18.852539 6.19629,-6.987304 16.61132,-6.987304 10.45899,0 16.61133,6.987304 6.19629,6.94336 6.19629,18.852539 0,11.90918 -6.19629,18.89648 -6.15234,6.94336 -16.61133,6.94336 -10.41503,0 -16.61132,-6.94336 -6.15235,-6.9873 -6.15235,-18.89648 z"
       id="path4" />
    <path
       style="fill:#f05033"
       d="m 546.94922,84.599609 q 0,-6.591797 -2.50488,-10.546875 -2.50489,-3.999023 -6.5918,-3.999023 -4.04297,0 -6.54785,3.955078 -2.46094,3.955078 -2.46094,10.59082 0,6.679688 2.46094,10.634766 2.50488,3.955078 6.54785,3.955078 4.08691,0 6.5918,-3.955078 2.50488,-3.999023 2.50488,-10.634766 z m 12.87598,21.708981 q 0,11.82129 -5.36133,17.05079 -5.31739,5.27343 -17.31446,5.27343 -4.04296,0 -7.99804,-0.61523 -3.95508,-0.57129 -8.042,-1.80176 v -11.82129 q 3.64747,2.02149 7.42676,2.98828 3.7793,0.9668 7.77832,0.9668 5.44922,0 8.042,-2.59277 2.59277,-2.54883 2.59277,-7.99805 v -5.31738 q -1.88965,3.51562 -5.00977,5.22949 -3.12011,1.71387 -7.60254,1.71387 -8.4375,0 -13.40332,-6.5918 -4.96582,-6.591798 -4.96582,-17.885743 0,-11.689454 4.96582,-18.544922 4.96582,-6.855469 13.31543,-6.855469 4.21875,0 7.51465,1.977539 3.2959,1.977539 5.18555,5.581055 v -6.28418 h 12.87598 z m 15.73242,-45.52734 h 25.48828 v 39.33105 h 15.99609 V 110 h -44.91211 v -9.8877 h 16.04004 V 70.668945 h -12.6123 z m 12.6123,-23.950195 h 12.87598 v 15.029297 h -12.87598 z m 62.18262,9.975586 V 60.78125 h 16.83105 v 9.887695 h -16.83105 v 23.291016 q 0,3.295898 1.58203,4.746094 1.62598,1.406245 5.36133,1.406245 h 9.88769 V 110 h -10.81054 q -11.07422,0 -14.98535,-3.51562 -3.91114,-3.55958 -3.91114,-13.139653 V 70.668945 H 624.9082 V 60.78125 h 12.56836 V 46.806641 Z"
       id="path5" />
  </g>
  <rect
     x="675"
     y="43"
     width="45"
     height="67"
     fill="#f05033"
     id="rect3" />
</svg>
